<?xml version="1.0" standalone="no"?>
<!DOCTYPE svg PUBLIC "-//W3C//DTD SVG 1.1//EN" "http://www.w3.org/Graphics/SVG/1.1/DTD/svg11.dtd"><svg t="1744264507398"
    class="icon" viewBox="0 0 1024 1024" version="1.1" xmlns="http://www.w3.org/2000/svg" p-id="9484" width="32"
    height="32" xmlns:xlink="http://www.w3.org/1999/xlink">
    <path d="M682.618 959.888H341.352l42.552-213.138L640 746.688z" fill="#CCD1D9" p-id="9485"></path>
    <path
        d="M1023.882 767.934c0 11.81-9.562 21.306-21.34 21.306H21.424c-11.748 0-21.308-9.496-21.308-21.306V85.418c0-11.778 9.56-21.306 21.308-21.306h981.118c11.778 0 21.34 9.528 21.34 21.306v682.516zM682.618 959.888H341.352c-11.748 0-21.308-9.558-21.308-21.306 0-11.81 9.56-21.372 21.308-21.372h341.266c11.778 0 21.338 9.56 21.338 21.372 0 11.748-9.562 21.306-21.338 21.306z"
        fill="#E6E9ED" p-id="9486"></path>
    <path
        d="M1002.542 64.112H21.424C9.676 64.112 0.116 73.64 0.116 85.418v575.852h1023.766V85.418c0-11.778-9.562-21.306-21.34-21.306z"
        fill="#656D78" p-id="9487"></path>
    <path
        d="M533.306 725.256c0 11.81-9.53 21.37-21.308 21.37s-21.338-9.558-21.338-21.37c0-11.748 9.56-21.306 21.338-21.306s21.308 9.558 21.308 21.306z"
        fill="#434A54" p-id="9488"></path>
    <path
        d="M746.602 149.404H106.75c-11.78 0-21.338 9.56-21.338 21.338 0 11.78 9.56 21.34 21.338 21.34h639.852c11.778 0 21.34-9.56 21.34-21.34 0-11.778-9.564-21.338-21.34-21.338z"
        fill="#FC6E51" p-id="9489"></path>
    <path
        d="M106.75 277.376h341.264c11.78 0 21.308-9.53 21.308-21.308 0-11.81-9.528-21.338-21.308-21.338H106.75a21.324 21.324 0 0 0-21.338 21.338c-0.002 11.778 9.558 21.308 21.338 21.308z"
        fill="#AC92EB" p-id="9490"></path>
    <path
        d="M106.75 362.698h469.236c11.78 0 21.308-9.56 21.308-21.338a21.294 21.294 0 0 0-21.308-21.306H106.75c-11.78 0-21.338 9.528-21.338 21.306-0.002 11.778 9.558 21.338 21.338 21.338z"
        fill="#48CFAD" p-id="9491"></path>
    <path
        d="M106.75 447.992l298.586 0.032c11.81 0 21.338-9.56 21.338-21.338s-9.528-21.338-21.338-21.338H106.75c-11.78 0-21.338 9.56-21.338 21.338-0.002 11.776 9.558 21.306 21.338 21.306z"
        fill="#5D9CEC" p-id="9492"></path>
    <path
        d="M661.278 490.668H106.75c-11.78 0-21.338 9.56-21.338 21.308 0 11.81 9.56 21.34 21.338 21.34h554.528c11.81 0 21.34-9.53 21.34-21.308s-9.53-21.34-21.34-21.34z"
        fill="#FFCE54" p-id="9493"></path>
    <path
        d="M277.366 575.976H106.75c-11.78 0-21.338 9.562-21.338 21.308 0 11.81 9.56 21.372 21.338 21.372h170.618c11.81 0 21.338-9.56 21.338-21.372 0-11.744-9.53-21.308-21.34-21.308z"
        fill="#ED5564" p-id="9494"></path>
</svg>